<svg width="256" height="256" viewBox="0 0 256 256" fill="none" xmlns="http://www.w3.org/2000/svg">
<path fill-rule="evenodd" clip-rule="evenodd" d="M112.298 222.3V33.1365C91.8473 35.9904 72.7395 45.4223 57.9708 60.191C40.0614 78.1004 30 102.391 30 127.719C30 153.046 40.0614 177.337 57.9708 195.246C72.7395 210.015 91.8473 219.447 112.298 222.3Z" fill="white"/>
<path fill-rule="evenodd" clip-rule="evenodd" d="M141.495 222.863C150.261 221.848 158.862 219.62 167.047 216.229C178.634 211.43 189.161 204.395 198.029 195.528C206.897 186.66 213.931 176.132 218.731 164.546C223.53 152.959 226 140.541 226 128C226 115.459 223.53 103.041 218.731 91.4544C213.931 79.868 206.897 69.3403 198.029 60.4725C189.161 51.6047 178.634 44.5703 167.047 39.7711C158.862 36.3805 150.261 34.1524 141.495 33.1365V72.6041C145.123 73.3241 148.68 74.4005 152.114 75.8228C158.966 78.661 165.192 82.821 170.436 88.0653C175.681 93.3096 179.841 99.5355 182.679 106.387C185.517 113.24 186.978 120.583 186.978 128C186.978 135.417 185.517 142.761 182.679 149.613C179.841 156.465 175.681 162.69 170.436 167.935C165.192 173.179 158.966 177.339 152.114 180.177C148.68 181.6 145.123 182.676 141.495 183.396V222.863Z" fill="white"/>
</svg>
